<svg width="21" height="21" viewBox="0 0 21 21" fill="none" xmlns="http://www.w3.org/2000/svg">
<path d="M1.37648 0.682635C1.73458 0.324643 2.2202 0.123535 2.72656 0.123535C3.23291 0.123535 3.71853 0.324643 4.07663 0.682635L10.8289 7.43492L17.5812 0.682635C17.9413 0.334789 18.4237 0.142314 18.9244 0.146665C19.4251 0.151016 19.904 0.351844 20.2581 0.705896C20.6121 1.05995 20.813 1.5389 20.8173 2.03958C20.8217 2.54027 20.6292 3.02263 20.2813 3.38278L13.5291 10.1351L20.2813 16.8873C20.6292 17.2475 20.8217 17.7299 20.8173 18.2305C20.813 18.7312 20.6121 19.2102 20.2581 19.5642C19.904 19.9183 19.4251 20.1191 18.9244 20.1235C18.4237 20.1278 17.9413 19.9353 17.5812 19.5875L10.8289 12.8352L4.07663 19.5875C3.71648 19.9353 3.23412 20.1278 2.73343 20.1235C2.23274 20.1191 1.7538 19.9183 1.39974 19.5642C1.04569 19.2102 0.844863 18.7312 0.840512 18.2305C0.836162 17.7299 1.02864 17.2475 1.37648 16.8873L8.12876 10.1351L1.37648 3.38278C1.01849 3.02468 0.817383 2.53906 0.817383 2.03271C0.817383 1.52636 1.01849 1.04073 1.37648 0.682635Z" fill="#4D4ED3"/>
</svg>
